# xmcd CD database file
#
# Track frame offsets:
#	150
#	12206
#	25944
#	41273
#	54861
#	68281
#	81300
#	95735
#	106092
#	119122
#	131336
#	145575
#	156543
#	170701
#	187741
#	197038
#	209601
#	221870
#	232852
#	247290
#
# Disc length: 3424 seconds
#
# Revision: 0
# Processed by: cddbd v1.5.1PL0 Copyright (c) Steve Scherf et al.
# Submitted via: CDex 1.51
#
DISCID=190d5e14
DTITLE=Terry Haché - Les grands succès vol. 2
DYEAR=1900
DGENRE=Country
TTITLE0=Rose de papier
TTITLE1=Une chanson d'amour
TTITLE2=Je n'ai pas eu de chance
TTITLE3=Je te rejoindrai
TTITLE4=Il y a quelqu'un
TTITLE5=Nous vivons tout deux dans une prison
TTITLE6=L'hirondelle
TTITLE7=Pour toi chérie
TTITLE8=Je reprends goût à la vie
TTITLE9=Il a fallu que je t'accuse
TTITLE10=Diane reviens moi
TTITLE11=Pense à moi
TTITLE12=Padré
TTITLE13=Chanson du prisonnier
TTITLE14=L'amour revit une autre fois
TTITLE15=Reviens moi
TTITLE16=Il ne faut pas pleurer
TTITLE17=La vie à deux
TTITLE18=Sans toi
TTITLE19=Jambalaya
EXTD=
EXTT0=
EXTT1=
EXTT2=
EXTT3=
EXTT4=
EXTT5=
EXTT6=
EXTT7=
EXTT8=
EXTT9=
EXTT10=
EXTT11=
EXTT12=
EXTT13=
EXTT14=
EXTT15=
EXTT16=
EXTT17=
EXTT18=
EXTT19=
PLAYORDER=
